# xmcd
#
# Track frame offsets: 
#        150
#        14690
#        29242
#        44510
#        58175
#        75715
#        95095
#        109182
#        122317
#        139340
#        156177
#        175920
#        187335
#        202475
#
# Disc length: 2748 seconds
#
# Revision: 7
# Processed by: cddbd v1.5.1PL0 Copyright (c) Steve Scherf et al.
# Submitted via: ExactAudioCopy v0.90b4
#
DISCID=db0aba0e
DTITLE=Various Artist - Kindred Spirits: A Tribute to the Songs of Johnny Cas
DTITLE=h
DYEAR=2002
DGENRE=Country
TTITLE0=Dwight Yoakam - Understand Your Man
TTITLE1=Rosanne Cash - I Still Miss Someone
TTITLE2=Bob Dylan - Train of Love
TTITLE3=Little Richard - Get Rhythm
TTITLE4=Keb' Mo - Folsom Prison Blues
TTITLE5=Travis Tritt - I Walk the Line
TTITLE6=Hank Williams Jr. - Big River
TTITLE7=Bruce Springsteen - Give My Love to Rose
TTITLE8=Charlie Robison - Don't Take Your Guns to Town
TTITLE9=Mary Chapin Carpenter, Sheryl Crow and Emmylou Harris - Flesh an
TTITLE9=d Blood
TTITLE10=Steve Earle - Hardin Wouldn't Run
TTITLE11=Marty Stuart - Hey Porter
TTITLE12=Janette Carter - Meet Me in Heaven
TTITLE13=The Mudcats - For Luther (I Walk the Line Reprise)
EXTD=
EXTT0=
EXTT1=
EXTT2=
EXTT3=
EXTT4=
EXTT5=
EXTT6=
EXTT7=
EXTT8=
EXTT9=
EXTT10=
EXTT11=
EXTT12=
EXTT13=
PLAYORDER=
